<?xml version="1.0"?>
<svg width="640" height="480" xmlns="http://www.w3.org/2000/svg" xmlns:svg="http://www.w3.org/2000/svg">
    <!-- Created with SVG-edit - https://github.com/SVG-Edit/svgedit-->
    <g class="layer" fill="none">
        <title>Layer 1</title>
        <rect fill="#FF0000" height="0" id="svg_2" stroke="#000000" width="1" x="-425" y="-65"/>
        <rect fill="#ea8a8a" height="60.000002" id="svg_3" stroke="#000000" width="113.000003" x="91" y="103"/>
        <path d="m301,89c0,-22.651934 26.403315,-41 59,-41c32.596685,0 59,18.348066 59,41c0,22.651934 -26.403315,41 -59,41c-32.596685,0 -59,-18.348066 -59,-41z"
              fill="#24e2c9" id="svg_1" stroke="#000000"/>
        <text fill="#f70000" font-family="Serif" font-size="24" id="svg_4" stroke="#000000" stroke-width="0"
              text-anchor="middle" x="145" xml:space="preserve" y="271">WaWA</text>
        <path d="m327,235l-65,56l67,88l125,-52l-26,-106l-33,-48l-129,-11l61,73z" fill="#ea8a8a" id="svg_5"
              stroke="#000000"/>
        <line fill="none" id="svg_6" stroke="#ffffff" transform="matrix(1 0 0 1 0 0)" x1="59" x2="142" y1="394"
              y2="348"/>
        <path fill="none"
              d="m483,128c5.065826,-5.278503 5.658569,-5.72702 6.307495,-6.14283c0.677673,-0.434227 1.414978,-0.849472 2.212494,-1.246506c0.843994,-0.420181 1.752747,-0.845856 3.813354,-1.610664c1.130707,-0.41967 2.340942,-0.80603 3.605988,-1.186501c1.302917,-0.391861 2.641602,-0.760391 4.002014,-1.105499c1.363647,-0.345932 2.721466,-0.684189 5.391998,-1.208c1.278564,-0.250786 2.530426,-0.453621 3.760468,-0.624001c1.21405,-0.168159 2.426147,-0.302147 3.643494,-0.407997c1.229736,-0.106926 2.483215,-0.197495 5.096008,-0.301338c1.372498,-0.05455 2.782654,-0.085342 4.216492,-0.096001c1.444824,-0.010735 2.888,0.001106 4.315552,0.048004c1.400208,0.045998 2.764893,0.080521 5.301331,0.381332c1.165283,0.138199 2.258728,0.340279 3.28949,0.580498c0.992065,0.231209 1.943909,0.510689 2.866516,0.823502c0.917236,0.310997 1.827881,0.65802 3.677307,1.429337c0.966064,0.402908 1.948669,0.831429 2.940002,1.276497c0.995422,0.446915 1.97998,0.904175 2.940002,1.375504c0.936646,0.459862 1.847107,0.896576 3.453308,1.848c0.725952,0.430023 1.380493,0.873573 1.971008,1.327499c0.563965,0.43354 1.081116,0.891106 1.557007,1.372498c0.475037,0.48053 0.934875,0.991005 1.805359,2.133331c0.46521,0.610489 0.919006,1.266396 1.376953,1.944008c0.464783,0.687714 0.917908,1.387283 1.359009,2.087997c0.433533,0.688675 0.850647,1.360657 1.597351,2.634659c0.339294,0.578903 0.647644,1.126724 0.932983,1.647003c0.271912,0.495789 0.526855,0.977188 0.770996,1.449005c0.241211,0.466202 0.478027,0.935638 0.962708,1.903992c0.255005,0.509491 0.518433,1.036789 0.78595,1.581009c0.273865,0.557098 0.549683,1.126236 0.822021,1.707001c0.275085,0.586563 0.553284,1.176254 1.058655,2.378662c0.250977,0.597031 0.482971,1.194901 0.705017,1.786499c0.217896,0.580429 0.421692,1.150406 0.61499,1.705505c0.186646,0.535934 0.360596,1.051788 0.679993,2.007996c0.145325,0.435074 0.280579,0.841171 0.405029,1.219498c0.115479,0.350998 0.221191,0.675949 0.315002,0.976501c0.08606,0.275818 0.166931,0.527496 0.279968,0.970673c0.048523,0.190262 0.084351,0.367935 0.11853,0.536987c0.033752,0.166946 0.067078,0.338455 0.109497,0.519012c0.046448,0.197495 0.100098,0.418503 0.271973,0.944c0.105103,0.321259 0.236938,0.677994 0.385498,1.070999c0.161926,0.428391 0.342529,0.887802 0.538513,1.376999c0.207642,0.518173 0.428772,1.062103 0.909363,2.218658c0.253662,0.610413 0.519043,1.239288 0.78595,1.889999c0.274475,0.669266 0.551514,1.358414 0.822021,2.070007c0.276917,0.728409 0.561768,1.473358 1.058655,3.039993c0.255737,0.806396 0.486328,1.636002 0.709534,2.481003c0.226196,0.856339 0.439087,1.726685 0.646484,2.60701c0.208984,0.887009 0.410461,1.781082 0.810669,3.578659c0.200195,0.899216 0.398987,1.794312 0.591003,2.682007c0.18927,0.874969 0.37085,1.733948 0.536987,2.57399c0.161133,0.814667 0.321655,1.599548 0.538696,3.077332c0.09967,0.678864 0.168274,1.320831 0.218994,1.9245c0.047546,0.565765 0.076111,1.096207 0.092957,1.591507c0.015686,0.46106 0.02002,0.889328 0.021362,2.296005c0.000793,0.812988 0,1.535995 0,2.539993c0,0.835495 0.010254,1.716064 -0.000305,2.614838c-0.010681,0.910675 -0.061462,1.869858 -0.333008,2.866501c-0.198181,0.727371 -0.518433,1.452347 -0.852051,2.171997c-0.322754,0.696335 -0.959778,1.878159 -1.272949,2.640503c-0.284363,0.692154 -0.461975,1.70575 -0.541687,2.541656c-0.055664,0.583405 -0.195557,1.78566 -0.435974,2.668503c-0.157776,0.579544 -0.557495,1.646774 -0.864014,2.358002c-0.391724,0.908951 -0.805176,1.872253 -1,2.409836c-0.308228,0.850555 -0.700012,2.042831 -0.900024,2.642838c-0.299988,0.899994 -0.5,1.500015 -0.899963,2.699997c-0.200012,0.599991 -0.499329,1.500229 -0.700012,2.099991c-0.402588,1.203125 -0.612305,1.830048 -0.90802,2.472c-0.326538,0.708954 -1.051575,1.873978 -1.345337,2.297333c-0.623657,0.898788 -0.970764,1.349106 -1.645813,2.282501c-0.335815,0.464325 -1.262268,1.82431 -1.532837,2.264175c-0.525269,0.853836 -0.756409,1.29097 -1.273315,2.136658c-0.809998,1.325195 -1.133057,1.771851 -1.46405,2.231339c-0.682861,0.947968 -1.049988,1.417114 -1.415955,1.890671c-0.729126,0.943558 -1.450195,1.856949 -2.127991,2.738663c-0.32605,0.424179 -0.946289,1.244034 -1.240051,1.639999c-0.562439,0.758163 -1.329346,1.821945 -1.784973,2.485001c-0.424072,0.617188 -0.823975,1.185593 -1.440186,2.240326c-0.401367,0.686996 -0.741211,1.364243 -1.121338,2.342682c-0.309448,0.796524 -0.593079,1.615799 -0.778809,2.657486c-0.166687,0.935043 -0.182007,1.694489 -0.342834,2.563843c-0.187439,1.013367 -0.372925,1.711411 -0.579834,2.389328c-0.369873,1.211838 -0.624573,1.729965 -0.898682,2.587662c-0.331543,1.037415 -0.506775,1.914795 -0.689331,2.881683c-0.093994,0.497894 -0.259583,1.487091 -0.325317,1.962646c-0.220581,1.595947 -0.263,2.223602 -0.280823,3.089508c-0.01947,0.94632 -0.004517,1.698517 -0.004517,2.522491c0,0.848022 -0.015686,1.672089 0.001343,3.070679c0.010132,0.832642 0.059753,1.624115 0.220154,2.496002c0.186462,1.01355 0.372803,1.711456 0.579834,2.389343c0.368469,1.206512 0.716431,1.913391 0.91333,2.565308c0.302002,0.999908 0.315674,1.735474 0.785339,2.902679c0.311279,0.77359 0.561279,1.170135 1.041687,2.041656c0.251343,0.455994 0.785339,1.372375 1.536804,2.736664c0.238831,0.433563 0.68335,1.276184 1.11084,2.075012c0.407288,0.761108 0.79541,1.489258 1.415161,2.493988c0.406433,0.658905 0.846497,1.309723 1.562195,2.319336c0.252625,0.356415 0.789124,1.091522 1.354126,1.854187c0.289185,0.39035 0.880981,1.180145 1.779358,2.379486c0.301331,0.402222 0.911682,1.220154 1.220642,1.641327c0.638794,0.87088 0.96936,1.325623 1.645874,2.291687c0.72113,1.029755 1.082153,1.567047 1.447998,2.106659c0.365173,0.538696 1.075745,1.597321 1.415955,2.106659c0.636536,0.953003 1.204041,1.79303 1.686707,2.545349c0.431274,0.672211 0.837341,1.283569 1.397339,2.507996c0.270264,0.590881 0.582825,1.499329 0.885315,2.399994c0.30658,0.912811 0.520813,1.5625 0.757141,2.271515c0.409485,1.228485 0.566406,1.692078 0.895508,2.695496c0.173828,0.529968 0.52417,1.628357 0.694702,2.189331c0.170776,0.561676 0.636108,2.221283 0.767334,2.760986c0.259094,1.065674 0.372009,1.602051 0.580811,2.692505c0.106995,0.558777 0.307617,1.723022 0.504517,2.95816c0.101563,0.637085 0.199829,1.282715 0.299988,1.932007c0.199707,1.294739 0.295593,1.932739 0.5,3.166656c0.0979,0.590881 0.299072,1.723663 0.400024,2.272003c0.198181,1.076355 0.304077,1.608734 0.599976,3.227997c0.101257,0.554108 0.296936,1.676758 0.389343,2.237335c0.091309,0.554108 0.259155,1.628235 0.325317,2.141327c0.179138,1.388947 0.238403,2.200745 0.264526,2.975525c0.026794,0.794037 0.020813,2.145813 0.020813,3.216492c0,0.57782 0,1.174652 0,2.397339c0,0.611816 0.005615,1.214661 -0.000488,2.901337c-0.001831,0.511993 -0.007019,1.490234 -0.107483,2.440002c-0.051147,0.483459 -0.38385,2.026428 -0.556335,2.588165c-0.181763,0.591858 -0.629578,1.823822 -0.87738,2.456665c-0.250793,0.640533 -0.513672,1.278717 -0.776978,1.912476c-0.512756,1.234131 -0.995911,2.392853 -1.219666,2.943359c-0.422302,1.039032 -0.620117,1.528015 -0.974976,2.449982c-0.472839,1.228546 -0.736938,1.988037 -1.070007,2.73584c-0.17804,0.399811 -0.624207,1.27243 -1.25,2.270844c-0.363464,0.579865 -0.785461,1.189362 -1.239014,1.829987c-0.471619,0.666199 -0.966309,1.338989 -1.473022,2.01001c-0.502625,0.665619 -0.995178,1.31485 -1.954651,2.493317c-0.431458,0.529907 -1.236084,1.462006 -1.624023,1.874664c-0.740784,0.787994 -1.122131,1.163544 -2.375977,2.292023c-0.460327,0.414307 -0.955139,0.838623 -1.476013,1.276489c-0.540405,0.454254 -1.098083,0.922882 -2.294678,1.84201c-0.614014,0.471619 -1.892639,1.386444 -2.550659,1.82666c-0.659363,0.441132 -1.329651,0.866943 -2.003967,1.285492c-0.673035,0.417786 -1.349243,0.825562 -2.022034,1.231506c-0.668518,0.403381 -1.987244,1.202484 -2.630676,1.604156c-0.63385,0.395691 -1.252136,0.79007 -1.853943,1.179016c-0.58551,0.378418 -1.150574,0.747498 -2.210693,1.450653c-0.958435,0.635681 -1.799988,1.200012 -2.538696,1.698669l-0.650635,0.450684l-0.578674,0.41864"
              id="svg_7" stroke="#ff0000"/>
        <path d="m233.969182,398.416251c14.823639,-42.526833 72.903142,0 0,54.677357c-72.903142,-54.677357 -14.823639,-97.20419 0,-54.677357z"
              fill="#ea8a8a" id="svg_8" stroke="#000000"/>
        <polyline points="0,0 0,20 20,20 20,40 40,40 40,60"
                  style="fill:node;stroke:red;stroke-width:2"/>
        <polygon cx="58" cy="333" edge="57.522942" fill="#24e2c9" id="svg_11" orient="x"
                 points="270.9319381713867,226 237.1208038330078,272.53704833984375 182.4132308959961,254.761474609375 182.4132308959961,197.238525390625 237.1208038330078,179.46295166015625 270.9319381713867,226 "
                 shape="regularPoly" sides="5" stroke="#000000" stroke-width="NaN"/>
        <path fill="none" class="line" stroke="#eb3d77"
              d="M50,378.4C94.44444444444446,378.3333333333333,138.88888888888889,378.26666666666665,183.33333333333334,378C227.7777777777778,377.73333333333335,272.22222222222223,40.000000000000014,316.6666666666667,40.000000000000014C361.11111111111114,40.000000000000014,405.55555555555554,42.00000000000001,450,44"
              stroke-width="3" stroke-dasharray="638.1630859375,638.1630859375" opacity="1"></path>
    </g>
</svg>
